<?xml version="1.0" encoding="utf-8"?>
<!-- Generator: Adobe Illustrator 23.0.3, SVG Export Plug-In . SVG Version: 6.00 Build 0)  -->
<svg version="1.1" id="Layer_1" xmlns="http://www.w3.org/2000/svg" xmlns:xlink="http://www.w3.org/1999/xlink" x="0px" y="0px"
	 viewBox="0 0 235 235" style="enable-background:new 0 0 235 235;" xml:space="preserve">
<style type="text/css">
	.st0{fill:url(#SVGID_1_);}
	.st1{fill:#FFFFFF;}
	.st2{fill:url(#SVGID_2_);}
	.st3{fill:#EF4A61;}
	.st4{fill:none;stroke:#C6C5CA;stroke-width:3;stroke-miterlimit:10;}
</style>
<linearGradient id="SVGID_1_" gradientUnits="userSpaceOnUse" x1="117.5" y1="234.5" x2="117.5" y2="0.5">
	<stop  offset="0" style="stop-color:#EF395D"/>
	<stop  offset="1" style="stop-color:#EF4A61"/>
</linearGradient>
<path class="st0" d="M181.6,234.5H53.4c-29.1,0-52.9-23.8-52.9-52.9V53.4c0-29.1,23.8-52.9,52.9-52.9h128.1
	c29.1,0,52.9,23.8,52.9,52.9v128.1C234.5,210.7,210.7,234.5,181.6,234.5z"/>
<path class="st1" d="M197.5,44.2H52.1c-1.1,0-2,0.9-2,2V182c0,5-4,9-9,9h149.4c5,0,9-4,9-9V46.2C199.5,45,198.7,44.2,197.5,44.2z"/>
<linearGradient id="SVGID_2_" gradientUnits="userSpaceOnUse" x1="32.0983" y1="125.6486" x2="50.0983" y2="125.6486">
	<stop  offset="0.3" style="stop-color:#FFFFFF"/>
	<stop  offset="1" style="stop-color:#CFCED0"/>
</linearGradient>
<path class="st2" d="M32.1,182c0,5,4,9,9,9s9-4,9-9c0,0,0-121.6,0-121.6h-16c-1.1,0-2,0.9-2,2C32.1,62.3,32.1,182,32.1,182z"/>
<path class="st3" d="M83.5,119.2H69.3c-2.2,0-4-1.8-4-4V101c0-3.6,4.3-5.3,6.8-2.8l14.3,14.3C88.9,114.9,87.1,119.2,83.5,119.2z"/>
<path class="st3" d="M123.9,100.6l-40-40c-0.8-0.8-1.8-1.2-2.8-1.2H70.3c-2.8,0-5,2.2-5,5v10.8c0,1.1,0.4,2.1,1.2,2.8l40,40
	c0.8,0.8,1.8,1.2,2.8,1.2h10.8c2.8,0,5-2.2,5-5v-10.8C125.1,102.4,124.6,101.4,123.9,100.6z"/>
<path class="st3" d="M106.8,59.4h14.3c2.2,0,4,1.8,4,4v14.3c0,3.6-4.3,5.3-6.8,2.8L104,66.3C101.5,63.7,103.3,59.4,106.8,59.4z"/>
<line class="st4" x1="65.3" y1="138.4" x2="199.5" y2="138.4"/>
<line class="st4" x1="65.3" y1="154.5" x2="199.5" y2="154.5"/>
<line class="st4" x1="65.3" y1="170.6" x2="199.5" y2="170.6"/>
</svg>
